<svg xmlns="http://www.w3.org/2000/svg" width="36" height="33.956" xmlns:v="https://vecta.io/nano"><path d="M33.75 15.822H19.125v-4.533h1.674H33.75v4.533zM19.125 31.689H31.5v-13.6H19.125v13.6zm3.758-28.75a2.45 2.45 0 0 1 3.409 0c.943.957.943 2.516 0 3.473-.97.984-3.937 2.611-5.492 2.611-.322 0-.416-.073-.418-.075-.522-.546.985-4.472 2.502-6.009h0zm-6.007 12.884H2.25v-4.533h12.951 1.674v4.533zM4.5 31.689h12.375v-13.6H4.5v13.6zm5.209-28.75a2.38 2.38 0 0 1 3.409 0c1.517 1.537 3.024 5.463 2.5 6.009 0 0-.095.075-.416.075-1.555 0-4.523-1.627-5.492-2.611-.943-.957-.943-2.516 0-3.473h0zM33.75 9.022h-7.119c.511-.351.95-.7 1.256-1.013a4.77 4.77 0 0 0 0-6.669c-1.762-1.786-4.835-1.788-6.599 0-.974.986-3.564 5-3.206 7.682h-.162c.355-2.681-2.232-6.696-3.206-7.682-1.764-1.788-4.837-1.786-6.599 0a4.77 4.77 0 0 0-.002 6.669c.308.313.747.662 1.258 1.013H2.25C1.01 9.022 0 10.04 0 11.289v5.667a1.13 1.13 0 0 0 1.125 1.133H2.25v13.6c0 1.249 1.01 2.267 2.25 2.267h27c1.24 0 2.25-1.018 2.25-2.267v-13.6h1.125A1.13 1.13 0 0 0 36 16.956v-5.667c0-1.249-1.01-2.267-2.25-2.267h0z" fill="#fff" fill-rule="evenodd"/></svg>